<?xml version="1.0" standalone="no"?>

<svg version="1.0" xmlns="http://www.w3.org/2000/svg"
 width="500.000000pt" height="500.000000pt" viewBox="0 0 500.000000 500.000000"
 preserveAspectRatio="xMidYMid meet">

<g transform="translate(0.000000,500.000000) scale(0.100000,-0.100000)"
fill="#98FF98" stroke="none">
<path d="M0 2500 l0 -2500 2500 0 2500 0 0 2500 0 2500 -2500 0 -2500 0 0
-2500z m2524 457 c93 -243 172 -445 175 -450 4 -4 40 79 81 185 40 106 80 208
87 227 l14 33 25 -33 c56 -77 124 -109 230 -109 144 0 264 124 264 272 0 103
-60 197 -155 244 -50 24 -64 26 -135 22 -44 -3 -80 -3 -80 -2 0 2 5 15 12 29
l11 25 194 0 c106 0 193 -3 193 -7 0 -5 32 -359 70 -787 39 -429 70 -781 70
-783 0 -2 -81 -3 -179 -3 l-179 0 -6 38 c-3 20 -19 224 -36 452 -18 228 -35
423 -38 432 -5 11 -65 -149 -168 -445 l-161 -462 -109 -3 -110 -3 -153 443
c-85 244 -160 454 -167 468 -12 22 -13 23 -14 5 0 -11 -16 -213 -35 -450 -19
-236 -35 -440 -35 -452 0 -23 0 -23 -180 -23 -180 0 -180 0 -180 23 0 33 130
1508 136 1535 4 22 5 22 197 22 l192 0 169 -443z m667 218 c57 -37 65 -116 18
-170 -28 -31 -37 -35 -80 -35 -40 0 -55 5 -81 29 -29 26 -33 36 -33 79 0 40 5
56 24 76 39 42 105 51 152 21z m-1590 -1770 c-11 -70 -43 -159 -70 -194 l-19
-24 -23 35 c-74 113 -243 117 -316 7 -30 -46 -41 -122 -24 -170 l11 -32 -73 6
c-39 3 -100 14 -134 25 -67 21 -203 106 -203 126 0 12 96 271 107 289 2 4 22
-6 43 -23 146 -116 306 -83 339 70 7 32 11 192 11 420 0 204 1 370 3 370 2 0
25 -7 51 -16 90 -31 199 -2 268 71 l33 34 3 -467 c1 -257 -2 -494 -7 -527z
m147 202 c2 -25 -2 -55 -8 -67 -13 -24 -52 -27 -70 -5 -13 15 -10 17 25 19 17
1 20 9 23 54 4 67 26 66 30 -1z m146 32 c49 -39 22 -119 -41 -119 -58 0 -86
77 -43 120 26 26 51 25 84 -1z m149 6 c17 -17 21 -94 5 -112 -6 -7 -28 -13
-49 -13 l-39 0 0 70 0 70 34 0 c19 0 41 -7 49 -15z m177 -57 c25 -62 26 -68
10 -68 -10 0 -20 7 -24 15 -3 9 -18 15 -36 15 -20 0 -30 -5 -30 -15 0 -8 -9
-15 -19 -15 -22 0 -24 -10 24 106 21 51 41 41 75 -38z m110 50 l17 -22 12 22
c6 12 18 22 26 22 20 0 19 -9 -5 -45 -11 -16 -20 -45 -20 -62 0 -23 -5 -33
-15 -33 -10 0 -15 10 -15 33 0 17 -9 43 -20 57 -11 14 -20 31 -20 38 0 19 20
14 40 -10z m200 7 c0 -9 -9 -15 -25 -15 -31 0 -33 -17 -3 -22 32 -5 35 -28 4
-28 -16 0 -26 -6 -26 -15 0 -9 9 -15 25 -15 16 0 25 -6 25 -15 0 -11 -11 -15
-40 -15 l-40 0 0 70 0 70 40 0 c29 0 40 -4 40 -15z m121 5 c20 -11 26 -54 9
-65 -6 -4 -2 -18 10 -36 19 -25 19 -29 5 -29 -10 0 -26 11 -37 25 -11 14 -24
25 -29 25 -5 0 -9 -11 -9 -25 0 -16 -6 -25 -15 -25 -12 0 -15 14 -15 63 0 35
3 67 7 70 10 10 52 8 74 -3z m129 -22 l26 -31 23 31 c37 53 51 42 51 -38 0
-56 -3 -70 -15 -70 -11 0 -15 12 -15 43 l-1 42 -18 -22 c-11 -13 -24 -23 -29
-23 -5 0 -17 10 -25 23 -16 21 -16 21 -16 -20 -1 -31 -5 -43 -16 -43 -12 0
-15 14 -15 70 0 80 9 87 50 38z m254 -33 c14 -36 26 -67 26 -70 0 -12 -28 -3
-34 10 -3 9 -18 15 -35 15 -16 0 -31 -6 -35 -15 -5 -13 -36 -22 -36 -11 0 21
62 136 74 136 8 0 25 -27 40 -65z m123 25 c15 -22 31 -40 36 -40 4 0 7 18 7
41 0 28 4 39 13 37 7 -3 13 -29 15 -71 3 -59 1 -67 -15 -67 -10 0 -31 19 -48
43 l-30 42 -3 -42 c-2 -29 -8 -43 -18 -43 -11 0 -14 15 -14 63 0 91 13 99 57
37z m168 -3 l30 -42 3 43 c2 28 8 42 18 42 11 0 14 -16 14 -70 0 -84 -13 -90
-59 -28 l-31 42 0 -42 c0 -31 -4 -42 -15 -42 -12 0 -15 14 -15 70 0 83 11 89
55 27z m219 -22 c14 -36 26 -67 26 -70 0 -12 -28 -3 -34 10 -3 9 -18 15 -35
15 -16 0 -31 -6 -35 -15 -5 -13 -36 -22 -36 -11 0 21 62 136 74 136 8 0 25
-27 40 -65z m123 25 c15 -22 31 -40 36 -40 4 0 7 18 7 41 0 28 4 39 13 37 7
-3 13 -29 15 -71 3 -59 1 -67 -15 -67 -10 0 -31 19 -48 43 l-30 42 -3 -42 c-2
-29 -8 -43 -18 -43 -11 0 -14 15 -14 63 0 91 13 99 57 37z"/>
<path d="M1831 1616 c-21 -25 -10 -61 18 -61 31 0 50 28 35 53 -15 23 -38 26
-53 8z"/>
<path d="M1990 1620 c0 -5 9 -10 20 -10 11 0 20 5 20 10 0 6 -9 10 -20 10 -11
0 -20 -4 -20 -10z"/>
<path d="M1990 1565 c0 -11 7 -15 23 -13 12 2 22 8 22 13 0 6 -10 11 -22 13
-16 2 -23 -2 -23 -13z"/>
<path d="M2166 1595 c-3 -9 0 -15 9 -15 9 0 12 6 9 15 -4 8 -7 15 -9 15 -2 0
-5 -7 -9 -15z"/>
<path d="M2600 1615 c0 -8 9 -15 20 -15 11 0 20 7 20 15 0 8 -9 15 -20 15 -11
0 -20 -7 -20 -15z"/>
<path d="M2986 1601 c-4 -7 -5 -15 -2 -18 9 -9 19 4 14 18 -4 11 -6 11 -12 0z"/>
<path d="M3496 1601 c-4 -7 -5 -15 -2 -18 9 -9 19 4 14 18 -4 11 -6 11 -12 0z"/>
</g>
</svg>
