<?xml version="1.0" encoding="UTF-8"?>
<svg version="1.1" viewBox="0 0 2048 620" width="100%" height="auto" xmlns="http://www.w3.org/2000/svg">
<path transform="translate(0)" d="m0 0h2048v695h-2048z" fill="#e0e7ff"/>
<path transform="translate(95,295)" d="m0 0 211 1 6 5 1 3v214l-5 6-8 2h-208l-6-4-3-4v-214l6-7z" fill="#e0e7ff"/>
<path transform="translate(612,356)" d="m0 0h62l12 3 9 6 5 8 2 6v15l-3 8-5 7 9 9 4 10 1 5v9l-3 10-6 8-8 5-9 3-7 1h-63z" fill="#121011"/>
<path transform="translate(1036,356)" d="m0 0h63l10 2 10 5 7 7 4 9 1 10-2 13-5 8-8 7-7 3h-3l3 10 7 13 7 7 13 3v15l-1 1h-11l-10-3-8-7-6-9-13-27h-18l-10 2-6 2-1 42h-16z" fill="#121011"/>
<path transform="translate(220,329)" d="m0 0h10l6 3 6 7v13l-4 6-7 4-8 1h-9l-12 3-12 5-7 5-3 8 1 5 2 4-4-1-2 11-2 4h10l13 2 11 3 10 4 14 7 9 7 5 4 3-6 3-5-16-3-16-5-10-4-12-5-13-8 1-2 10 6 15 7 26 8 14 3h14l7 2 4 4v2h2l2 5v7l-3 7-5 5-18 5-8 8-3 6-3 12-6 7-4 2h-9l-8-5-4-5-1-2v-9l3-6 3-3h2v-2l5-2 11-2 8-7 4-5-1-7-4-5-15-10-13-6-16-4-6-1h-13l-7 2-10 6-9 2-10-1-8-4-9-8-5-10v-14l4-10 5-6 10-6 8-2h8l15 5h15l13-10 7-7 6-9 3-5 3-1v-2z" fill="#121011"/>
<path transform="translate(90,289)" d="m0 0h217l6 4 5 6 2 6v213l-3 6-8 7-8 2h-205l-9-2-7-5-3-6-1-5v-211l4-8 6-5zm5 6-7 3-5 6v214l5 6 4 2h208l8-2 5-6v-214l-3-5-4-3z" fill="#121011"/>
<path transform="translate(532,369)" d="m0 0h9l10 2 10 5 9 7 6 9 4 9 1 15-3 12-4 8-7 8-11 7-11 4h-17l-12-4-10-6-8-9-5-10-2-10 1-14 4-11 9-11 11-7 8-3z" fill="#e0e7ff"/>
<path transform="translate(1351,354)" d="m0 0h17l10 19 13 28 13 27 11 24 7 14v3h-18l-7-15h-44l-11 2-9 4-5 5-3 4h-17l2-6 20-41 14-29 11-23-1-7z" fill="#121011"/>
<path transform="translate(1709,354)" d="m0 0h18l8 16 13 27 12 26 15 31 6 13v2h-18l-6-13v-3l-44 1-13 2-9 4-7 9h-17l2-6 15-31 11-23 16-33 3-6-1-6z" fill="#121011"/>
<path transform="translate(754,354)" d="m0 0h18l7 14 13 28 18 38 15 32v3h-17l-5-10-2-5-3-1-43 1-13 3-8 5-6 7h-17l9-20 12-24 11-23 16-33-1-4z" fill="#121011"/>
<path transform="translate(1173,356)" d="m0 0h21l9 10 9 11 11 13 9 11 7 9 4-2 9-11 10-11 8-10 11-13 6-7h21l-4 6-7 8-1 2-1 97h-16v-76l-5 4-7 9-12 14-8 10-6 7-6-5-8-10-11-13-9-11-4-5-1 37v34l-1 5h-15l-1-97-12-15z" fill="#121011"/>
<path transform="translate(1424,356)" d="m0 0h21l13 15 9 11 12 14 9 11 11 13 9 11 8 10h1l1-85h16v113h-17l-9-11-12-14-9-11-11-13-9-11-12-14-3-3v77h-15l-1-1v-91l-2-8-10-11z" fill="#121011"/>
<path transform="translate(1547,356)" d="m0 0h21l10 11 9 11 11 13 9 11 9 10 8 10 11 13 5 6 1-85h16v113h-16l-10-11-9-11-11-13-9-11-11-13-9-11-5-6-1 75-1 1h-15l-1-98-10-11z" fill="#121011"/>
<path transform="translate(1783,356)" d="m0 0h20l5 5 13 15 9 11 12 14 9 11 11 13 9 11 5 5v-85h15v113h-14l-5-5-8-9-9-11-22-26-9-11-11-13v-2h-2v77h-16l-1-98-11-13z" fill="#121011"/>
<path transform="translate(529,353)" d="m0 0h15l13 3 14 7 10 9 8 10 6 14 2 14-1 13-2 8-5 12-12 14-13 8-12 5-7 1h-18l-12-3-14-7-12-11-6-9-5-11-2-8-1-14 3-15 7-14 11-12 10-7 15-6zm3 16-11 2-12 6-6 5-7 9-4 11-1 14 2 10 5 10 8 9 10 6 12 4h17l13-5 11-8 7-9 4-11 1-13-2-11-6-11-5-6-12-8-8-3-7-1z" fill="#121011"/>
<path transform="translate(934,356)" d="m0 0h79v17h-63l1 33 11-3h34v16l-26 1-11 1-9 2v30h70v16h-86z" fill="#121011"/>
<path transform="translate(413,356)" d="m0 0h47v74l-2 12-6 12-7 8-9 5-10 4h-21l-16-5-10-6-1-3 7-12 5 2 12 6 8 1h13l10-4 6-8 4-12 1-57-25-1-6-14z" fill="#121011"/>
<path transform="translate(825,356)" d="m0 0h18l11 23 9 13 10 12 4-2 9-11 9-14 8-16 3-5h18l-2 6-10 19-8 12-11 15-9 10-1 2-1 49h-16l-1-49-9-11-10-13-11-17-9-17z" fill="#121011"/>
<path transform="translate(142,363)" d="m0 0h15l10 5 7 8 3 5v12l-2 9-2 4h-2v3l-10 7-8 2h-9l-10-4-8-8v-2h-2l-3-10v-7l3-9 4-6 7-6z" fill="#FCFCFD"/>
<path transform="translate(1053,372)" d="m0 0h45l9 2 5 5 3 8-2 10-6 7-7 2-35 1-13 3v-37z" fill="#FEFEFE"/>
<path transform="translate(650,419)" d="m0 0h21l11 2 8 7 2 4v7l-3 6-7 6-9 2h-45v-28l3-3 9-2z" fill="#FEFEFE"/>
<path transform="translate(630,372)" d="m0 0h32l15 1 6 4 3 5v10l-4 7-5 3-5 1-31 1-9 3h-4v-34z" fill="#FEFEFE"/>
<path transform="translate(258,423)" d="m0 0h11l5 2 4 7v12l-7 6-5 2-11 2-8 7-5 7-2 12-4 6-7 4h-6l-8-5-3-4-1-7 3-8 5-4 6-2 9-2 6-4 7-8 2-10 3-9 3-3z" fill="#FDFDFD"/>
<path transform="translate(767,389)" d="m0 0 3 1 13 26 10 18v2l-27 1-15 2-7 3v-3l13-28z" fill="#FEFEFE"/>
<path transform="translate(1722,389)" d="m0 0 3 1 17 33 6 11v2l-27 1-14 2-8 3 1-4 15-33z" fill="#FEFEFE"/>
<path transform="translate(1364,389)" d="m0 0 4 4 9 17 12 24v2l-27 1-14 2-5 2-3-1 13-28 10-22z" fill="#FEFEFE"/>
<path transform="translate(222,331)" d="m0 0h8l6 4 4 6v9l-4 7-6 3-19 1-13 4-10 4-4 2v2h-2v2h-2l-1 3h-3l-2-6h-2v-3l12-2 11-7 10-9 7-10 6-8z" fill="#FBFCFD"/>
<path transform="translate(186,396)" d="m0 0 11 6 15 7 26 8 14 3h14l7 2 4 4v2h2l2 5v7l-3 7-5 5-18 5-8 8-3 6-3 12-6 7-4 2h-9l-8-5-4-5-1-2v-9l3-6 3-3h2v-2l5-2 11-2 8-7 4-5-1-7-4-5-15-10-2-1 1-3 15 9 7 7 2-2 5-9-16-3-16-5-10-4-12-5-13-8zm72 27-5 3-4 8-1 10-4 6-8 7-4 2-11 2-6 4-3 5-1 6 2 6 4 5 6 3 9-1 6-5 2-4 2-12 6-8 7-6 14-3 6-4 3-4v-11l-4-7-5-2z" fill="#476BF8"/>
<path transform="translate(179,392)" d="m0 0 6 2 2 4 13 8 20 7 10 4 21 5 2 1-2 5-4 7-7-6-14-9-12-5-16-5-16-2h-8z" fill="#FAFAFB"/>
<path transform="translate(220,329)" d="m0 0h10l6 3 6 7v13l-4 6-7 4-8 1h-9l-12 3-12 5-5 2 5-6 16-6 5-1 19-1 6-2 2-4 1-3v-9l-4-6-5-3h-8l-6 4-9 14-9 9-12 8-2-1 9-8 8-7 7-9 5-8 3-1v-2z" fill="#476CFA"/>
<path transform="translate(223,418)" d="m0 0 10 5 9 7 5 4 3-6 2-1-1 4-2 13-4 6-7 7-6 3-11 2-6 4-2 4h-2l1-5 3-3h2v-2l5-2 11-2 8-7 4-5-1-7-4-5-15-10-2-1z" fill="#466BF6"/>
<path transform="translate(186,396)" d="m0 0 11 6 15 7 13 4v2l-5-1-20-7-14-9z" fill="#405FDA"/>
<path transform="translate(225,414)" d="m0 0 9 2 16 4 1 2-10-1-17-5z" fill="#486DFC"/>
<path transform="translate(188,368)" d="m0 0m-1 1m-1 1m-2 1 2 1-5 8-1 7 3 6-3-1v-2h-2l-1-3v-9l3-3h2v-2h2z" fill="#314599"/>
<path transform="translate(208,408)" d="m0 0 10 3 7 2v2l-5-1-12-4z" fill="#3751B5"/>
<path transform="translate(177,387)" d="m0 0 1 3h2l-2 9h-2z" fill="#486DFC"/>
</svg>
