<svg height="64" viewBox="0 0 64 64" width="64" xmlns="http://www.w3.org/2000/svg" xmlns:xlink="http://www.w3.org/1999/xlink"><defs><path id="a" d="m7.17232543 39c-3.56183315-4.9483208-7.17232543-13.6228623-7.17232543-21 0-11.045695 12-18 12-18s12 6.954305 12 18c0 7.3771377-3.6104923 16.0516792-7.1723254 21z"/><mask id="b" fill="#2196f3"><use fill="#ffffff" fill-rule="evenodd" xlink:href="#a"/></mask></defs><g fill="none" fill-rule="evenodd"><path d="m19 30 11-9v17l-13 5z" fill="#2196f3"/><path d="m36 30 11-9v17l-13 5z" fill="#2196f3" transform="matrix(-1 0 0 1 81 0)"/><g transform="translate(20 2)"><use fill="#ffffff" xlink:href="#a"/><ellipse cx="12" cy="5" fill="#ffffff" mask="url(#b)" rx="10" ry="5"/></g><circle cx="32" cy="20" fill="#2196f3" r="3"/><path d="m27 41h10v4h-10z" fill="#2196f3"/><path d="m32 63-5-18h10z" fill="#2196f3"/></g></svg>